<svg xmlns="http://www.w3.org/2000/svg" xmlns:xlink="http://www.w3.org/1999/xlink" width="500" zoomAndPan="magnify" viewBox="0 0 375 374.999991" height="500" preserveAspectRatio="xMidYMid meet" version="1.0"><defs><clipPath id="e4fe8a2d90"><path d="M 184 61 L 230 61 L 230 105 L 184 105 Z M 184 61 " clip-rule="nonzero"/></clipPath><clipPath id="f43ad0f500"><path d="M 179.398438 91.152344 L 217.046875 55.644531 L 235.054688 74.742188 L 197.410156 110.25 Z M 179.398438 91.152344 " clip-rule="nonzero"/></clipPath><clipPath id="40db492c62"><path d="M 179.398438 91.152344 L 217.046875 55.644531 L 235.054688 74.742188 L 197.410156 110.25 Z M 179.398438 91.152344 " clip-rule="nonzero"/></clipPath><clipPath id="afc6235764"><path d="M 207.632812 64.523438 C 212.832031 59.621094 221.078125 59.921875 226.050781 65.195312 C 231.023438 70.46875 230.84375 78.71875 225.644531 83.621094 L 206.820312 101.375 C 201.625 106.277344 193.378906 105.976562 188.40625 100.703125 C 183.429688 95.429688 183.613281 87.179688 188.808594 82.277344 L 207.632812 64.523438 " clip-rule="nonzero"/></clipPath><clipPath id="b1821f04f5"><path d="M 157 58 L 195 58 L 195 108 L 157 108 Z M 157 58 " clip-rule="nonzero"/></clipPath><clipPath id="22151f2e92"><path d="M 175.300781 111.832031 L 152.871094 65.191406 L 176.527344 53.816406 L 198.957031 100.453125 Z M 175.300781 111.832031 " clip-rule="nonzero"/></clipPath><clipPath id="e79213d5d5"><path d="M 175.300781 111.832031 L 152.871094 65.191406 L 176.527344 53.816406 L 198.957031 100.453125 Z M 175.300781 111.832031 " clip-rule="nonzero"/></clipPath><clipPath id="536b6cafbb"><path d="M 158.480469 76.851562 C 155.382812 70.414062 158.167969 62.648438 164.699219 59.503906 C 171.234375 56.363281 179.039062 59.035156 182.136719 65.476562 L 193.347656 88.796875 C 196.445312 95.234375 193.660156 103 187.128906 106.144531 C 180.59375 109.285156 172.789062 106.609375 169.691406 100.171875 L 158.480469 76.851562 " clip-rule="nonzero"/></clipPath><clipPath id="49debcd182"><path d="M 80.082031 99.003906 L 294.917969 99.003906 L 294.917969 313.839844 L 80.082031 313.839844 Z M 80.082031 99.003906 " clip-rule="nonzero"/></clipPath><clipPath id="f8415d9622"><path d="M 80.082031 99.003906 L 294.582031 99.003906 L 294.582031 313.503906 L 80.082031 313.503906 Z M 80.082031 99.003906 " clip-rule="nonzero"/></clipPath><clipPath id="c37b838b91"><path d="M 265 172 L 298 172 L 298 188 L 265 188 Z M 265 172 " clip-rule="nonzero"/></clipPath><clipPath id="2f2a8c7d82"><path d="M 186.851562 65.019531 L 301.929688 180.101562 L 187.910156 294.121094 L 72.828125 179.042969 Z M 186.851562 65.019531 " clip-rule="nonzero"/></clipPath><clipPath id="08cf8ae476"><path d="M 186.851562 65.019531 L 301.929688 180.101562 L 187.910156 294.121094 L 72.828125 179.042969 Z M 186.851562 65.019531 " clip-rule="nonzero"/></clipPath><clipPath id="a9596aa3ad"><path d="M 265 171 L 298 171 L 298 189 L 265 189 Z M 265 171 " clip-rule="nonzero"/></clipPath><clipPath id="0c1270e050"><path d="M 186.851562 65.019531 L 301.929688 180.101562 L 187.910156 294.121094 L 72.828125 179.042969 Z M 186.851562 65.019531 " clip-rule="nonzero"/></clipPath><clipPath id="e6bf735355"><path d="M 186.851562 65.019531 L 301.929688 180.101562 L 187.910156 294.121094 L 72.828125 179.042969 Z M 186.851562 65.019531 " clip-rule="nonzero"/></clipPath><clipPath id="dd7f20c032"><path d="M 218 171 L 251 171 L 251 188 L 218 188 Z M 218 171 " clip-rule="nonzero"/></clipPath><clipPath id="236d97e01e"><path d="M 186.851562 65.019531 L 301.929688 180.101562 L 187.910156 294.121094 L 72.828125 179.042969 Z M 186.851562 65.019531 " clip-rule="nonzero"/></clipPath><clipPath id="ec7c738089"><path d="M 186.851562 65.019531 L 301.929688 180.101562 L 187.910156 294.121094 L 72.828125 179.042969 Z M 186.851562 65.019531 " clip-rule="nonzero"/></clipPath><clipPath id="c588f0ba37"><path d="M 217 171 L 251 171 L 251 189 L 217 189 Z M 217 171 " clip-rule="nonzero"/></clipPath><clipPath id="38ac67eabf"><path d="M 186.851562 65.019531 L 301.929688 180.101562 L 187.910156 294.121094 L 72.828125 179.042969 Z M 186.851562 65.019531 " clip-rule="nonzero"/></clipPath><clipPath id="6b858de0d4"><path d="M 186.851562 65.019531 L 301.929688 180.101562 L 187.910156 294.121094 L 72.828125 179.042969 Z M 186.851562 65.019531 " clip-rule="nonzero"/></clipPath><clipPath id="2065bc4767"><path d="M 170 171 L 204 171 L 204 188 L 170 188 Z M 170 171 " clip-rule="nonzero"/></clipPath><clipPath id="3abe5980a9"><path d="M 186.851562 65.019531 L 301.929688 180.101562 L 187.910156 294.121094 L 72.828125 179.042969 Z M 186.851562 65.019531 " clip-rule="nonzero"/></clipPath><clipPath id="6325383215"><path d="M 186.851562 65.019531 L 301.929688 180.101562 L 187.910156 294.121094 L 72.828125 179.042969 Z M 186.851562 65.019531 " clip-rule="nonzero"/></clipPath><clipPath id="01953df34f"><path d="M 123 171 L 156 171 L 156 188 L 123 188 Z M 123 171 " clip-rule="nonzero"/></clipPath><clipPath id="21436db2e0"><path d="M 186.851562 65.019531 L 301.929688 180.101562 L 187.910156 294.121094 L 72.828125 179.042969 Z M 186.851562 65.019531 " clip-rule="nonzero"/></clipPath><clipPath id="e348074bc7"><path d="M 186.851562 65.019531 L 301.929688 180.101562 L 187.910156 294.121094 L 72.828125 179.042969 Z M 186.851562 65.019531 " clip-rule="nonzero"/></clipPath><clipPath id="c14eb16e19"><path d="M 123 171 L 157 171 L 157 188 L 123 188 Z M 123 171 " clip-rule="nonzero"/></clipPath><clipPath id="5fd0861217"><path d="M 186.851562 65.019531 L 301.929688 180.101562 L 187.910156 294.121094 L 72.828125 179.042969 Z M 186.851562 65.019531 " clip-rule="nonzero"/></clipPath><clipPath id="ec1ffaa7d0"><path d="M 186.851562 65.019531 L 301.929688 180.101562 L 187.910156 294.121094 L 72.828125 179.042969 Z M 186.851562 65.019531 " clip-rule="nonzero"/></clipPath><clipPath id="4ac331923f"><path d="M 77 171 L 110 171 L 110 187 L 77 187 Z M 77 171 " clip-rule="nonzero"/></clipPath><clipPath id="c7420aa1b3"><path d="M 186.851562 65.019531 L 301.929688 180.101562 L 187.910156 294.121094 L 72.828125 179.042969 Z M 186.851562 65.019531 " clip-rule="nonzero"/></clipPath><clipPath id="5c41da7466"><path d="M 186.851562 65.019531 L 301.929688 180.101562 L 187.910156 294.121094 L 72.828125 179.042969 Z M 186.851562 65.019531 " clip-rule="nonzero"/></clipPath><clipPath id="0e02939bee"><path d="M 76 170 L 110 170 L 110 188 L 76 188 Z M 76 170 " clip-rule="nonzero"/></clipPath><clipPath id="10eacd1019"><path d="M 186.851562 65.019531 L 301.929688 180.101562 L 187.910156 294.121094 L 72.828125 179.042969 Z M 186.851562 65.019531 " clip-rule="nonzero"/></clipPath><clipPath id="7710f7f6db"><path d="M 186.851562 65.019531 L 301.929688 180.101562 L 187.910156 294.121094 L 72.828125 179.042969 Z M 186.851562 65.019531 " clip-rule="nonzero"/></clipPath><clipPath id="d6b9e0ac32"><path d="M 242 177 L 275 177 L 275 183 L 242 183 Z M 242 177 " clip-rule="nonzero"/></clipPath><clipPath id="9e18aaa933"><path d="M 186.851562 65.019531 L 301.929688 180.101562 L 187.910156 294.121094 L 72.828125 179.042969 Z M 186.851562 65.019531 " clip-rule="nonzero"/></clipPath><clipPath id="c476554bea"><path d="M 186.851562 65.019531 L 301.929688 180.101562 L 187.910156 294.121094 L 72.828125 179.042969 Z M 186.851562 65.019531 " clip-rule="nonzero"/></clipPath><clipPath id="42a9a421d2"><path d="M 195 177 L 227 177 L 227 182 L 195 182 Z M 195 177 " clip-rule="nonzero"/></clipPath><clipPath id="34d78cd920"><path d="M 186.851562 65.019531 L 301.929688 180.101562 L 187.910156 294.121094 L 72.828125 179.042969 Z M 186.851562 65.019531 " clip-rule="nonzero"/></clipPath><clipPath id="e8ec3e21e8"><path d="M 186.851562 65.019531 L 301.929688 180.101562 L 187.910156 294.121094 L 72.828125 179.042969 Z M 186.851562 65.019531 " clip-rule="nonzero"/></clipPath><clipPath id="f8e5188c13"><path d="M 194 177 L 228 177 L 228 183 L 194 183 Z M 194 177 " clip-rule="nonzero"/></clipPath><clipPath id="0836210dd7"><path d="M 186.851562 65.019531 L 301.929688 180.101562 L 187.910156 294.121094 L 72.828125 179.042969 Z M 186.851562 65.019531 " clip-rule="nonzero"/></clipPath><clipPath id="cd5f053478"><path d="M 186.851562 65.019531 L 301.929688 180.101562 L 187.910156 294.121094 L 72.828125 179.042969 Z M 186.851562 65.019531 " clip-rule="nonzero"/></clipPath><clipPath id="6fbe2700c8"><path d="M 147 177 L 180 177 L 180 182 L 147 182 Z M 147 177 " clip-rule="nonzero"/></clipPath><clipPath id="330bd2391e"><path d="M 186.851562 65.019531 L 301.929688 180.101562 L 187.910156 294.121094 L 72.828125 179.042969 Z M 186.851562 65.019531 " clip-rule="nonzero"/></clipPath><clipPath id="38c857b96c"><path d="M 186.851562 65.019531 L 301.929688 180.101562 L 187.910156 294.121094 L 72.828125 179.042969 Z M 186.851562 65.019531 " clip-rule="nonzero"/></clipPath><clipPath id="659e197883"><path d="M 147 176 L 180 176 L 180 182 L 147 182 Z M 147 176 " clip-rule="nonzero"/></clipPath><clipPath id="fbbb0036dc"><path d="M 186.851562 65.019531 L 301.929688 180.101562 L 187.910156 294.121094 L 72.828125 179.042969 Z M 186.851562 65.019531 " clip-rule="nonzero"/></clipPath><clipPath id="1d439f0220"><path d="M 186.851562 65.019531 L 301.929688 180.101562 L 187.910156 294.121094 L 72.828125 179.042969 Z M 186.851562 65.019531 " clip-rule="nonzero"/></clipPath><clipPath id="8840a07095"><path d="M 100 176 L 133 176 L 133 182 L 100 182 Z M 100 176 " clip-rule="nonzero"/></clipPath><clipPath id="e03baa8f33"><path d="M 186.851562 65.019531 L 301.929688 180.101562 L 187.910156 294.121094 L 72.828125 179.042969 Z M 186.851562 65.019531 " clip-rule="nonzero"/></clipPath><clipPath id="4fb8333dfd"><path d="M 186.851562 65.019531 L 301.929688 180.101562 L 187.910156 294.121094 L 72.828125 179.042969 Z M 186.851562 65.019531 " clip-rule="nonzero"/></clipPath><clipPath id="349c011c88"><path d="M 179 284 L 196 284 L 196 317 L 179 317 Z M 179 284 " clip-rule="nonzero"/></clipPath><clipPath id="17d41aabe8"><path d="M 302.15625 205.976562 L 187.074219 321.058594 L 73.050781 207.035156 L 188.132812 91.957031 Z M 302.15625 205.976562 " clip-rule="nonzero"/></clipPath><clipPath id="78c2529984"><path d="M 302.15625 205.976562 L 187.074219 321.058594 L 73.050781 207.035156 L 188.132812 91.957031 Z M 302.15625 205.976562 " clip-rule="nonzero"/></clipPath><clipPath id="0568da1fd1"><path d="M 178 284 L 196 284 L 196 318 L 178 318 Z M 178 284 " clip-rule="nonzero"/></clipPath><clipPath id="48cb741c81"><path d="M 302.15625 205.976562 L 187.074219 321.058594 L 73.050781 207.035156 L 188.132812 91.957031 Z M 302.15625 205.976562 " clip-rule="nonzero"/></clipPath><clipPath id="3a1f12129d"><path d="M 302.15625 205.976562 L 187.074219 321.058594 L 73.050781 207.035156 L 188.132812 91.957031 Z M 302.15625 205.976562 " clip-rule="nonzero"/></clipPath><clipPath id="a8b98d0c6d"><path d="M 179 237 L 196 237 L 196 270 L 179 270 Z M 179 237 " clip-rule="nonzero"/></clipPath><clipPath id="99c5ff2e2e"><path d="M 302.15625 205.976562 L 187.074219 321.058594 L 73.050781 207.035156 L 188.132812 91.957031 Z M 302.15625 205.976562 " clip-rule="nonzero"/></clipPath><clipPath id="99adeff07e"><path d="M 302.15625 205.976562 L 187.074219 321.058594 L 73.050781 207.035156 L 188.132812 91.957031 Z M 302.15625 205.976562 " clip-rule="nonzero"/></clipPath><clipPath id="c8d152443e"><path d="M 179 236 L 196 236 L 196 270 L 179 270 Z M 179 236 " clip-rule="nonzero"/></clipPath><clipPath id="789ccd6a23"><path d="M 302.15625 205.976562 L 187.074219 321.058594 L 73.050781 207.035156 L 188.132812 91.957031 Z M 302.15625 205.976562 " clip-rule="nonzero"/></clipPath><clipPath id="10d3a6f96a"><path d="M 302.15625 205.976562 L 187.074219 321.058594 L 73.050781 207.035156 L 188.132812 91.957031 Z M 302.15625 205.976562 " clip-rule="nonzero"/></clipPath><clipPath id="8f57df67d1"><path d="M 179 190 L 196 190 L 196 223 L 179 223 Z M 179 190 " clip-rule="nonzero"/></clipPath><clipPath id="3075961dbc"><path d="M 302.15625 205.976562 L 187.074219 321.058594 L 73.050781 207.035156 L 188.132812 91.957031 Z M 302.15625 205.976562 " clip-rule="nonzero"/></clipPath><clipPath id="cf586aed85"><path d="M 302.15625 205.976562 L 187.074219 321.058594 L 73.050781 207.035156 L 188.132812 91.957031 Z M 302.15625 205.976562 " clip-rule="nonzero"/></clipPath><clipPath id="750005a962"><path d="M 179 189 L 196 189 L 196 223 L 179 223 Z M 179 189 " clip-rule="nonzero"/></clipPath><clipPath id="3611cbc654"><path d="M 302.15625 205.976562 L 187.074219 321.058594 L 73.050781 207.035156 L 188.132812 91.957031 Z M 302.15625 205.976562 " clip-rule="nonzero"/></clipPath><clipPath id="7e3bc773da"><path d="M 302.15625 205.976562 L 187.074219 321.058594 L 73.050781 207.035156 L 188.132812 91.957031 Z M 302.15625 205.976562 " clip-rule="nonzero"/></clipPath><clipPath id="8399d613bb"><path d="M 180 142 L 196 142 L 196 176 L 180 176 Z M 180 142 " clip-rule="nonzero"/></clipPath><clipPath id="8ae5c6ac87"><path d="M 302.15625 205.976562 L 187.074219 321.058594 L 73.050781 207.035156 L 188.132812 91.957031 Z M 302.15625 205.976562 " clip-rule="nonzero"/></clipPath><clipPath id="134038d5c9"><path d="M 302.15625 205.976562 L 187.074219 321.058594 L 73.050781 207.035156 L 188.132812 91.957031 Z M 302.15625 205.976562 " clip-rule="nonzero"/></clipPath><clipPath id="771fb08114"><path d="M 179 142 L 197 142 L 197 176 L 179 176 Z M 179 142 " clip-rule="nonzero"/></clipPath><clipPath id="35e7884024"><path d="M 302.15625 205.976562 L 187.074219 321.058594 L 73.050781 207.035156 L 188.132812 91.957031 Z M 302.15625 205.976562 " clip-rule="nonzero"/></clipPath><clipPath id="31cd14dfc7"><path d="M 302.15625 205.976562 L 187.074219 321.058594 L 73.050781 207.035156 L 188.132812 91.957031 Z M 302.15625 205.976562 " clip-rule="nonzero"/></clipPath><clipPath id="7f5bfbb5db"><path d="M 180 96 L 197 96 L 197 129 L 180 129 Z M 180 96 " clip-rule="nonzero"/></clipPath><clipPath id="06696c8cc5"><path d="M 302.15625 205.976562 L 187.074219 321.058594 L 73.050781 207.035156 L 188.132812 91.957031 Z M 302.15625 205.976562 " clip-rule="nonzero"/></clipPath><clipPath id="7e8686fe69"><path d="M 302.15625 205.976562 L 187.074219 321.058594 L 73.050781 207.035156 L 188.132812 91.957031 Z M 302.15625 205.976562 " clip-rule="nonzero"/></clipPath><clipPath id="6658ae3203"><path d="M 179 95 L 197 95 L 197 129 L 179 129 Z M 179 95 " clip-rule="nonzero"/></clipPath><clipPath id="7b063aa8e3"><path d="M 302.15625 205.976562 L 187.074219 321.058594 L 73.050781 207.035156 L 188.132812 91.957031 Z M 302.15625 205.976562 " clip-rule="nonzero"/></clipPath><clipPath id="47a7432037"><path d="M 302.15625 205.976562 L 187.074219 321.058594 L 73.050781 207.035156 L 188.132812 91.957031 Z M 302.15625 205.976562 " clip-rule="nonzero"/></clipPath><clipPath id="fc43ed0bc1"><path d="M 185 261 L 190 261 L 190 294 L 185 294 Z M 185 261 " clip-rule="nonzero"/></clipPath><clipPath id="f4fbc0a856"><path d="M 302.15625 205.976562 L 187.074219 321.058594 L 73.050781 207.035156 L 188.132812 91.957031 Z M 302.15625 205.976562 " clip-rule="nonzero"/></clipPath><clipPath id="04929e5c02"><path d="M 302.15625 205.976562 L 187.074219 321.058594 L 73.050781 207.035156 L 188.132812 91.957031 Z M 302.15625 205.976562 " clip-rule="nonzero"/></clipPath><clipPath id="0196097d4a"><path d="M 184 261 L 190 261 L 190 294 L 184 294 Z M 184 261 " clip-rule="nonzero"/></clipPath><clipPath id="34739264b3"><path d="M 302.15625 205.976562 L 187.074219 321.058594 L 73.050781 207.035156 L 188.132812 91.957031 Z M 302.15625 205.976562 " clip-rule="nonzero"/></clipPath><clipPath id="8eaad84eb3"><path d="M 302.15625 205.976562 L 187.074219 321.058594 L 73.050781 207.035156 L 188.132812 91.957031 Z M 302.15625 205.976562 " clip-rule="nonzero"/></clipPath><clipPath id="d14f418789"><path d="M 185 214 L 190 214 L 190 246 L 185 246 Z M 185 214 " clip-rule="nonzero"/></clipPath><clipPath id="07fe7889a8"><path d="M 302.15625 205.976562 L 187.074219 321.058594 L 73.050781 207.035156 L 188.132812 91.957031 Z M 302.15625 205.976562 " clip-rule="nonzero"/></clipPath><clipPath id="d9be5f960f"><path d="M 302.15625 205.976562 L 187.074219 321.058594 L 73.050781 207.035156 L 188.132812 91.957031 Z M 302.15625 205.976562 " clip-rule="nonzero"/></clipPath><clipPath id="bad3109579"><path d="M 184 213 L 191 213 L 191 247 L 184 247 Z M 184 213 " clip-rule="nonzero"/></clipPath><clipPath id="e3d9eba3ac"><path d="M 302.15625 205.976562 L 187.074219 321.058594 L 73.050781 207.035156 L 188.132812 91.957031 Z M 302.15625 205.976562 " clip-rule="nonzero"/></clipPath><clipPath id="9e2702e254"><path d="M 302.15625 205.976562 L 187.074219 321.058594 L 73.050781 207.035156 L 188.132812 91.957031 Z M 302.15625 205.976562 " clip-rule="nonzero"/></clipPath><clipPath id="ef0e01a9b4"><path d="M 185 167 L 190 167 L 190 199 L 185 199 Z M 185 167 " clip-rule="nonzero"/></clipPath><clipPath id="2070c64e01"><path d="M 302.15625 205.976562 L 187.074219 321.058594 L 73.050781 207.035156 L 188.132812 91.957031 Z M 302.15625 205.976562 " clip-rule="nonzero"/></clipPath><clipPath id="e0ec80046f"><path d="M 302.15625 205.976562 L 187.074219 321.058594 L 73.050781 207.035156 L 188.132812 91.957031 Z M 302.15625 205.976562 " clip-rule="nonzero"/></clipPath><clipPath id="21eb65628c"><path d="M 185 166 L 191 166 L 191 200 L 185 200 Z M 185 166 " clip-rule="nonzero"/></clipPath><clipPath id="9a4203809e"><path d="M 302.15625 205.976562 L 187.074219 321.058594 L 73.050781 207.035156 L 188.132812 91.957031 Z M 302.15625 205.976562 " clip-rule="nonzero"/></clipPath><clipPath id="e2f6c52266"><path d="M 302.15625 205.976562 L 187.074219 321.058594 L 73.050781 207.035156 L 188.132812 91.957031 Z M 302.15625 205.976562 " clip-rule="nonzero"/></clipPath><clipPath id="bfc166bfa6"><path d="M 185 119 L 191 119 L 191 152 L 185 152 Z M 185 119 " clip-rule="nonzero"/></clipPath><clipPath id="d154fdb7a1"><path d="M 302.15625 205.976562 L 187.074219 321.058594 L 73.050781 207.035156 L 188.132812 91.957031 Z M 302.15625 205.976562 " clip-rule="nonzero"/></clipPath><clipPath id="048cd37a18"><path d="M 302.15625 205.976562 L 187.074219 321.058594 L 73.050781 207.035156 L 188.132812 91.957031 Z M 302.15625 205.976562 " clip-rule="nonzero"/></clipPath></defs><g clip-path="url(#e4fe8a2d90)"><g clip-path="url(#f43ad0f500)"><g clip-path="url(#40db492c62)"><g clip-path="url(#afc6235764)"><path stroke-linecap="butt" transform="matrix(0.543145, -0.512282, 0.519706, 0.551017, 179.398836, 91.153984)" fill="none" stroke-linejoin="miter" d="M 51.983223 -0.000877644 C 61.554332 0.000504302 69.312558 7.759216 69.311459 17.32857 C 69.31036 26.897925 61.553601 34.658766 51.982493 34.657384 L 17.325291 34.656749 C 7.757989 34.658906 -0.000237658 26.900194 0.000861679 17.33084 C -0.00184507 7.757947 7.758719 0.000644494 17.326022 -0.00151209 L 51.983223 -0.000877644 " stroke="#ff914d" stroke-width="16" stroke-opacity="1" stroke-miterlimit="4"/></g></g></g></g><g clip-path="url(#b1821f04f5)"><g clip-path="url(#22151f2e92)"><g clip-path="url(#e79213d5d5)"><g clip-path="url(#536b6cafbb)"><path stroke-linecap="butt" transform="matrix(-0.323572, -0.67286, 0.682611, -0.328262, 175.299706, 111.830822)" fill="none" stroke-linejoin="miter" d="M 51.984812 0.00237038 C 61.553299 0.0000893844 69.310155 7.757157 69.314631 17.327316 C 69.312126 26.899888 61.556699 34.657225 51.983497 34.657271 L 17.327079 34.652984 C 7.758591 34.655265 0.00173571 26.898198 -0.00274094 17.328038 C -0.000235106 7.755466 7.759906 0.00036456 17.328393 -0.00191644 L 51.984812 0.00237038 " stroke="#ff914d" stroke-width="16" stroke-opacity="1" stroke-miterlimit="4"/></g></g></g></g><g clip-path="url(#49debcd182)"><path fill="#baffc3" d="M 80.082031 99.003906 L 294.917969 99.003906 L 294.917969 313.839844 L 80.082031 313.839844 Z M 80.082031 99.003906 " fill-opacity="1" fill-rule="nonzero"/></g><g clip-path="url(#f8415d9622)"><path stroke-linecap="butt" transform="matrix(0.748854, 0, 0, 0.748854, 80.081915, 99.002756)" fill="none" stroke-linejoin="miter" d="M 0.000154915 0.00153615 L 286.437676 0.00153615 L 286.437676 286.439057 L 0.000154915 286.439057 L 0.000154915 0.00153615 " stroke="#00bf63" stroke-width="16" stroke-opacity="1" stroke-miterlimit="4"/></g><g clip-path="url(#c37b838b91)"><g clip-path="url(#2f2a8c7d82)"><g clip-path="url(#08cf8ae476)"><path fill="#ff914d" d="M 269.289062 179.984375 C 269.308594 177.96875 270.816406 176.316406 272.761719 176.066406 L 290.289062 176.164062 C 292.230469 176.433594 293.71875 178.101562 293.703125 180.117188 C 293.6875 182.132812 292.179688 183.785156 290.234375 184.035156 L 272.703125 183.941406 C 270.761719 183.667969 269.277344 182 269.289062 179.984375 Z M 290.421875 187.894531 C 294.417969 187.558594 297.574219 184.226562 297.601562 180.140625 C 297.632812 176.050781 294.527344 172.6875 290.539062 172.304688 L 272.75 172.171875 L 272.75 172.199219 C 268.671875 172.453125 265.421875 175.816406 265.390625 179.964844 C 265.363281 184.109375 268.558594 187.511719 272.632812 187.808594 L 272.636719 187.835938 L 290.421875 187.894531 " fill-opacity="1" fill-rule="nonzero"/></g></g></g><g clip-path="url(#a9596aa3ad)"><g clip-path="url(#0c1270e050)"><g clip-path="url(#e6bf735355)"><path fill="#ff914d" d="M 269.289062 179.984375 L 269.65625 179.988281 C 269.664062 178.996094 270.066406 178.105469 270.714844 177.457031 C 271.265625 176.90625 271.996094 176.53125 272.808594 176.425781 L 272.761719 176.066406 L 272.757812 176.429688 L 290.289062 176.523438 L 290.289062 176.164062 L 290.238281 176.523438 C 291.035156 176.632812 291.746094 177.003906 292.289062 177.542969 C 292.945312 178.203125 293.347656 179.109375 293.339844 180.117188 C 293.332031 181.105469 292.929688 181.996094 292.28125 182.644531 C 291.726562 183.195312 291 183.570312 290.1875 183.675781 L 290.234375 184.035156 L 290.238281 183.675781 L 272.703125 183.578125 L 272.703125 183.941406 L 272.753906 183.582031 C 271.960938 183.46875 271.25 183.101562 270.710938 182.558594 C 270.050781 181.902344 269.648438 180.992188 269.65625 179.988281 L 269.289062 179.984375 L 268.929688 179.984375 C 268.917969 181.1875 269.402344 182.285156 270.195312 183.074219 C 270.839844 183.722656 271.695312 184.167969 272.648438 184.300781 L 272.699219 184.304688 L 290.234375 184.402344 L 290.28125 184.398438 C 291.257812 184.269531 292.132812 183.820312 292.792969 183.160156 C 293.574219 182.378906 294.058594 181.308594 294.066406 180.121094 C 294.078125 178.914062 293.59375 177.816406 292.804688 177.03125 C 292.152344 176.378906 291.296875 175.933594 290.34375 175.800781 L 290.292969 175.796875 L 272.765625 175.703125 L 272.71875 175.707031 C 271.738281 175.832031 270.863281 176.28125 270.199219 176.945312 C 269.421875 177.722656 268.933594 178.796875 268.929688 179.984375 Z M 290.421875 187.894531 L 290.449219 188.257812 C 292.4375 188.089844 294.230469 187.214844 295.5625 185.878906 C 297.035156 184.410156 297.949219 182.382812 297.964844 180.140625 C 297.984375 177.859375 297.066406 175.792969 295.574219 174.300781 C 294.269531 172.992188 292.519531 172.128906 290.574219 171.941406 L 290.539062 171.941406 L 272.753906 171.808594 C 272.65625 171.808594 272.5625 171.84375 272.496094 171.914062 C 272.425781 171.980469 272.386719 172.074219 272.386719 172.171875 L 272.386719 172.199219 L 272.75 172.199219 L 272.730469 171.835938 C 270.664062 171.960938 268.800781 172.851562 267.429688 174.230469 C 265.960938 175.695312 265.042969 177.722656 265.027344 179.960938 C 265.011719 182.238281 265.925781 184.304688 267.417969 185.796875 C 268.765625 187.140625 270.582031 188.023438 272.605469 188.171875 L 272.632812 187.808594 L 272.269531 187.808594 L 272.269531 187.835938 C 272.269531 188.035156 272.429688 188.199219 272.632812 188.199219 L 290.417969 188.261719 L 290.449219 188.257812 L 290.421875 187.894531 L 290.421875 187.53125 L 272.636719 187.472656 L 272.636719 187.835938 L 273 187.832031 L 272.996094 187.808594 C 273 187.617188 272.851562 187.460938 272.660156 187.445312 C 270.816406 187.308594 269.164062 186.507812 267.933594 185.28125 C 266.574219 183.921875 265.738281 182.042969 265.753906 179.964844 C 265.769531 177.921875 266.605469 176.082031 267.941406 174.742188 C 269.195312 173.488281 270.890625 172.679688 272.773438 172.5625 C 272.964844 172.550781 273.113281 172.390625 273.113281 172.199219 L 273.113281 172.171875 L 272.75 172.171875 L 272.746094 172.535156 L 290.535156 172.667969 L 290.539062 172.304688 L 290.503906 172.667969 C 292.277344 172.835938 293.867188 173.625 295.058594 174.8125 C 296.417969 176.175781 297.253906 178.058594 297.238281 180.136719 C 297.222656 182.179688 296.390625 184.023438 295.046875 185.367188 C 293.832031 186.582031 292.203125 187.378906 290.390625 187.53125 L 290.421875 187.894531 L 290.421875 187.53125 L 290.421875 187.894531 " fill-opacity="1" fill-rule="nonzero"/></g></g></g><g clip-path="url(#dd7f20c032)"><g clip-path="url(#236d97e01e)"><g clip-path="url(#ec7c738089)"><path fill="#ff914d" d="M 222.074219 179.730469 C 222.089844 177.714844 223.601562 176.0625 225.546875 175.808594 L 243.074219 175.902344 C 245.015625 176.175781 246.5 177.84375 246.488281 179.859375 C 246.472656 181.875 244.960938 183.527344 243.019531 183.78125 L 225.484375 183.683594 C 223.546875 183.410156 222.058594 181.742188 222.074219 179.730469 Z M 243.207031 187.636719 C 247.199219 187.300781 250.355469 183.96875 250.386719 179.882812 C 250.417969 175.796875 247.3125 172.429688 243.320312 172.046875 L 225.535156 171.914062 L 225.535156 171.941406 C 221.457031 172.195312 218.207031 175.5625 218.175781 179.707031 C 218.144531 183.851562 221.34375 187.253906 225.417969 187.550781 L 225.417969 187.578125 L 243.207031 187.636719 " fill-opacity="1" fill-rule="nonzero"/></g></g></g><g clip-path="url(#c588f0ba37)"><g clip-path="url(#38ac67eabf)"><g clip-path="url(#6b858de0d4)"><path fill="#ff914d" d="M 222.074219 179.730469 L 222.4375 179.730469 C 222.445312 178.742188 222.847656 177.851562 223.496094 177.203125 C 224.050781 176.648438 224.78125 176.273438 225.59375 176.171875 L 225.546875 175.808594 L 225.542969 176.171875 L 243.070312 176.269531 L 243.074219 175.902344 L 243.023438 176.265625 C 243.816406 176.375 244.53125 176.746094 245.070312 177.285156 C 245.726562 177.945312 246.128906 178.851562 246.125 179.859375 C 246.113281 180.847656 245.710938 181.738281 245.066406 182.386719 C 244.511719 182.941406 243.78125 183.3125 242.972656 183.417969 L 243.019531 183.78125 L 243.019531 183.417969 L 225.488281 183.320312 L 225.484375 183.683594 L 225.535156 183.324219 C 224.742188 183.210938 224.03125 182.84375 223.492188 182.300781 C 222.832031 181.644531 222.429688 180.738281 222.4375 179.730469 L 222.074219 179.730469 L 221.710938 179.726562 C 221.699219 180.929688 222.1875 182.027344 222.976562 182.816406 C 223.625 183.464844 224.480469 183.910156 225.433594 184.046875 L 225.480469 184.046875 L 243.015625 184.144531 L 243.066406 184.140625 C 244.039062 184.011719 244.917969 183.5625 245.578125 182.898438 C 246.355469 182.125 246.84375 181.046875 246.851562 179.863281 C 246.859375 178.65625 246.375 177.558594 245.585938 176.769531 C 244.9375 176.121094 244.082031 175.679688 243.125 175.542969 L 243.074219 175.539062 L 225.550781 175.445312 L 225.5 175.449219 C 224.523438 175.574219 223.644531 176.023438 222.980469 176.6875 C 222.203125 177.464844 221.71875 178.539062 221.710938 179.726562 Z M 243.207031 187.636719 L 243.234375 188 C 245.222656 187.832031 247.015625 186.957031 248.34375 185.621094 C 249.816406 184.15625 250.734375 182.125 250.75 179.886719 C 250.769531 177.605469 249.851562 175.535156 248.355469 174.042969 C 247.050781 172.738281 245.304688 171.871094 243.355469 171.683594 L 243.324219 171.683594 L 225.539062 171.550781 C 225.339844 171.550781 225.175781 171.707031 225.171875 171.90625 L 225.171875 171.933594 L 225.535156 171.941406 L 225.511719 171.578125 C 223.449219 171.707031 221.585938 172.59375 220.210938 173.972656 C 218.742188 175.4375 217.828125 177.464844 217.8125 179.707031 C 217.792969 181.984375 218.710938 184.050781 220.203125 185.539062 C 221.546875 186.886719 223.367188 187.765625 225.390625 187.914062 L 225.417969 187.550781 L 225.050781 187.558594 L 225.054688 187.585938 C 225.058594 187.78125 225.21875 187.941406 225.417969 187.941406 L 243.203125 188.003906 L 243.234375 188 L 243.207031 187.636719 L 243.207031 187.273438 L 225.421875 187.214844 L 225.417969 187.578125 L 225.78125 187.570312 L 225.78125 187.542969 C 225.777344 187.355469 225.632812 187.203125 225.445312 187.1875 C 223.601562 187.054688 221.945312 186.25 220.714844 185.023438 C 219.359375 183.664062 218.523438 181.785156 218.539062 179.710938 C 218.554688 177.667969 219.386719 175.824219 220.726562 174.484375 C 221.980469 173.230469 223.675781 172.421875 225.554688 172.304688 C 225.742188 172.292969 225.890625 172.140625 225.898438 171.949219 L 225.898438 171.921875 L 225.535156 171.914062 L 225.53125 172.28125 L 243.316406 172.414062 L 243.320312 172.046875 L 243.285156 172.410156 C 245.0625 172.578125 246.652344 173.367188 247.839844 174.558594 C 249.203125 175.921875 250.039062 177.800781 250.023438 179.882812 C 250.007812 181.925781 249.175781 183.769531 247.832031 185.109375 C 246.617188 186.324219 244.984375 187.121094 243.175781 187.277344 L 243.207031 187.636719 L 243.207031 187.273438 L 243.207031 187.636719 " fill-opacity="1" fill-rule="nonzero"/></g></g></g><g clip-path="url(#2065bc4767)"><g clip-path="url(#3abe5980a9)"><g clip-path="url(#6325383215)"><path fill="#ff914d" d="M 174.816406 179.472656 C 174.832031 177.457031 176.339844 175.800781 178.285156 175.550781 L 195.816406 175.648438 C 197.753906 175.917969 199.242188 177.589844 199.226562 179.605469 C 199.210938 181.617188 197.703125 183.269531 195.757812 183.523438 L 178.226562 183.429688 C 176.285156 183.152344 174.800781 181.484375 174.816406 179.472656 Z M 195.945312 187.382812 C 199.941406 187.046875 203.097656 183.710938 203.125 179.625 C 203.15625 175.539062 200.050781 172.171875 196.058594 171.789062 L 178.277344 171.660156 L 178.277344 171.6875 C 174.195312 171.9375 170.945312 175.304688 170.914062 179.449219 C 170.886719 183.597656 174.082031 187 178.15625 187.292969 L 178.15625 187.320312 L 195.945312 187.382812 " fill-opacity="1" fill-rule="nonzero"/><path fill="#ff914d" d="M 174.816406 179.472656 L 175.179688 179.472656 C 175.1875 178.484375 175.589844 177.59375 176.238281 176.945312 C 176.792969 176.390625 177.519531 176.015625 178.332031 175.910156 L 178.285156 175.550781 L 178.285156 175.914062 L 195.8125 176.011719 L 195.816406 175.648438 L 195.761719 176.007812 C 196.558594 176.121094 197.269531 176.488281 197.808594 177.027344 C 198.46875 177.6875 198.871094 178.597656 198.863281 179.601562 C 198.855469 180.589844 198.453125 181.480469 197.804688 182.128906 C 197.253906 182.683594 196.523438 183.054688 195.710938 183.160156 L 195.757812 183.523438 L 195.761719 183.160156 L 178.226562 183.066406 L 178.226562 183.429688 L 178.277344 183.066406 C 177.484375 182.953125 176.773438 182.585938 176.234375 182.046875 C 175.574219 181.386719 175.171875 180.480469 175.179688 179.472656 L 174.816406 179.472656 L 174.453125 179.46875 C 174.441406 180.675781 174.929688 181.773438 175.71875 182.5625 C 176.367188 183.210938 177.21875 183.652344 178.171875 183.789062 L 178.222656 183.792969 L 195.753906 183.886719 L 195.804688 183.882812 C 196.78125 183.757812 197.65625 183.308594 198.320312 182.644531 C 199.097656 181.867188 199.582031 180.792969 199.589844 179.605469 C 199.601562 178.398438 199.113281 177.304688 198.324219 176.515625 C 197.675781 175.867188 196.820312 175.421875 195.867188 175.289062 L 195.816406 175.285156 L 178.289062 175.1875 L 178.242188 175.191406 C 177.265625 175.316406 176.386719 175.765625 175.722656 176.429688 C 174.945312 177.207031 174.460938 178.28125 174.453125 179.46875 Z M 195.945312 187.382812 L 195.972656 187.746094 C 197.964844 187.578125 199.753906 186.699219 201.085938 185.367188 C 202.558594 183.898438 203.472656 181.867188 203.492188 179.628906 C 203.507812 177.347656 202.589844 175.277344 201.097656 173.785156 C 199.792969 172.480469 198.042969 171.613281 196.09375 171.429688 L 196.0625 171.425781 L 178.277344 171.292969 C 178.179688 171.292969 178.089844 171.332031 178.019531 171.398438 C 177.949219 171.46875 177.910156 171.5625 177.910156 171.660156 L 177.910156 171.6875 L 178.277344 171.6875 L 178.253906 171.324219 C 176.1875 171.449219 174.328125 172.339844 172.953125 173.714844 C 171.484375 175.183594 170.570312 177.207031 170.554688 179.449219 C 170.535156 181.726562 171.449219 183.792969 172.941406 185.28125 C 174.289062 186.628906 176.109375 187.511719 178.132812 187.660156 L 178.15625 187.292969 L 177.792969 187.28125 L 177.792969 187.308594 C 177.789062 187.40625 177.828125 187.503906 177.894531 187.574219 C 177.960938 187.644531 178.058594 187.683594 178.15625 187.683594 L 195.941406 187.746094 L 195.972656 187.746094 L 195.945312 187.382812 L 195.945312 187.019531 L 178.160156 186.957031 L 178.15625 187.320312 L 178.523438 187.332031 L 178.523438 187.308594 C 178.527344 187.113281 178.378906 186.945312 178.1875 186.933594 C 176.339844 186.796875 174.683594 185.996094 173.457031 184.765625 C 172.097656 183.410156 171.265625 181.527344 171.28125 179.453125 C 171.296875 177.410156 172.125 175.566406 173.464844 174.230469 C 174.71875 172.976562 176.414062 172.164062 178.296875 172.050781 C 178.488281 172.035156 178.640625 171.878906 178.640625 171.683594 L 178.640625 171.65625 L 178.277344 171.660156 L 178.269531 172.023438 L 196.058594 172.15625 L 196.058594 171.789062 L 196.023438 172.152344 C 197.800781 172.320312 199.390625 173.109375 200.582031 174.300781 C 201.945312 175.664062 202.777344 177.542969 202.761719 179.625 C 202.746094 181.667969 201.914062 183.511719 200.570312 184.851562 C 199.355469 186.066406 197.726562 186.867188 195.914062 187.019531 L 195.945312 187.382812 L 195.945312 187.019531 L 195.945312 187.382812 " fill-opacity="1" fill-rule="nonzero"/></g></g></g><g clip-path="url(#01953df34f)"><g clip-path="url(#21436db2e0)"><g clip-path="url(#e348074bc7)"><path fill="#ff914d" d="M 127.597656 179.214844 C 127.613281 177.199219 129.125 175.546875 131.070312 175.296875 L 148.597656 175.390625 C 150.539062 175.664062 152.023438 177.332031 152.011719 179.347656 C 151.996094 181.359375 150.484375 183.011719 148.542969 183.265625 L 131.007812 183.171875 C 129.070312 182.898438 127.582031 181.230469 127.597656 179.214844 Z M 148.726562 187.125 C 152.722656 186.789062 155.878906 183.453125 155.910156 179.367188 C 155.941406 175.28125 152.835938 171.914062 148.84375 171.535156 L 131.058594 171.402344 L 131.058594 171.429688 C 126.976562 171.683594 123.730469 175.046875 123.699219 179.195312 C 123.667969 183.339844 126.867188 186.742188 130.941406 187.039062 L 130.941406 187.0625 L 148.726562 187.125 " fill-opacity="1" fill-rule="nonzero"/></g></g></g><g clip-path="url(#c14eb16e19)"><g clip-path="url(#5fd0861217)"><g clip-path="url(#ec1ffaa7d0)"><path fill="#ff914d" d="M 127.597656 179.214844 L 127.960938 179.214844 C 127.96875 178.226562 128.371094 177.335938 129.019531 176.6875 C 129.574219 176.136719 130.304688 175.761719 131.117188 175.65625 L 131.070312 175.296875 L 131.070312 175.660156 L 148.59375 175.753906 L 148.597656 175.390625 L 148.546875 175.75 C 149.339844 175.863281 150.050781 176.230469 150.59375 176.773438 C 151.25 177.429688 151.652344 178.339844 151.648438 179.34375 C 151.640625 180.332031 151.238281 181.226562 150.589844 181.875 C 150.035156 182.425781 149.308594 182.800781 148.496094 182.90625 L 148.542969 183.265625 L 148.542969 182.902344 L 131.011719 182.808594 L 131.007812 183.171875 L 131.058594 182.8125 C 130.265625 182.699219 129.558594 182.328125 129.015625 181.789062 C 128.359375 181.128906 127.957031 180.222656 127.960938 179.21875 L 127.234375 179.210938 C 127.226562 180.417969 127.710938 181.515625 128.5 182.304688 C 129.148438 182.953125 130.003906 183.394531 130.957031 183.53125 L 131.007812 183.535156 L 148.539062 183.632812 L 148.589844 183.628906 C 149.5625 183.5 150.441406 183.050781 151.101562 182.386719 C 151.878906 181.609375 152.367188 180.535156 152.375 179.347656 C 152.382812 178.140625 151.898438 177.046875 151.109375 176.257812 C 150.460938 175.609375 149.605469 175.164062 148.648438 175.03125 L 148.597656 175.027344 L 131.074219 174.933594 L 131.023438 174.9375 C 130.046875 175.0625 129.171875 175.511719 128.507812 176.175781 C 127.730469 176.953125 127.242188 178.027344 127.234375 179.210938 Z M 148.726562 187.125 L 148.757812 187.488281 C 150.746094 187.320312 152.535156 186.441406 153.867188 185.109375 C 155.339844 183.640625 156.257812 181.609375 156.273438 179.371094 C 156.289062 177.089844 155.375 175.019531 153.882812 173.527344 C 152.574219 172.222656 150.828125 171.359375 148.878906 171.171875 L 148.847656 171.171875 L 131.0625 171.039062 C 130.859375 171.035156 130.695312 171.199219 130.695312 171.398438 L 130.691406 171.425781 L 131.058594 171.429688 L 131.035156 171.066406 C 128.972656 171.191406 127.109375 172.082031 125.734375 173.457031 C 124.265625 174.925781 123.351562 176.953125 123.335938 179.191406 C 123.316406 181.46875 124.234375 183.535156 125.722656 185.023438 C 127.070312 186.375 128.890625 187.253906 130.914062 187.402344 L 130.941406 187.039062 L 130.578125 187.035156 L 130.578125 187.0625 C 130.574219 187.15625 130.613281 187.25 130.679688 187.320312 C 130.75 187.390625 130.84375 187.429688 130.9375 187.429688 L 148.726562 187.488281 L 148.757812 187.488281 L 148.726562 187.125 L 148.730469 186.761719 L 130.945312 186.699219 L 130.941406 187.0625 L 131.304688 187.066406 L 131.304688 187.042969 C 131.308594 186.847656 131.160156 186.6875 130.96875 186.675781 C 129.125 186.539062 127.46875 185.738281 126.238281 184.507812 C 124.878906 183.152344 124.046875 181.273438 124.0625 179.195312 C 124.078125 177.152344 124.910156 175.3125 126.25 173.972656 C 127.503906 172.71875 129.199219 171.910156 131.078125 171.792969 C 131.269531 171.78125 131.417969 171.625 131.421875 171.433594 L 131.421875 171.40625 L 131.058594 171.402344 L 131.054688 171.765625 L 148.839844 171.898438 L 148.84375 171.535156 L 148.808594 171.898438 C 150.585938 172.066406 152.175781 172.855469 153.367188 174.042969 C 154.726562 175.40625 155.5625 177.289062 155.546875 179.367188 C 155.53125 181.410156 154.695312 183.253906 153.355469 184.597656 C 152.140625 185.808594 150.507812 186.609375 148.699219 186.761719 L 148.726562 187.125 L 148.730469 186.761719 L 148.726562 187.125 " fill-opacity="1" fill-rule="nonzero"/></g></g></g><g clip-path="url(#4ac331923f)"><g clip-path="url(#c7420aa1b3)"><g clip-path="url(#5c41da7466)"><path fill="#ff914d" d="M 101.996094 183.015625 L 84.460938 182.917969 C 82.523438 182.644531 81.039062 180.972656 81.054688 178.960938 C 81.066406 176.945312 82.578125 175.296875 84.523438 175.042969 L 102.050781 175.140625 C 103.992188 175.414062 105.480469 177.082031 105.464844 179.09375 C 105.449219 181.109375 103.9375 182.761719 101.996094 183.015625 Z M 109.363281 179.117188 C 109.394531 175.03125 106.289062 171.660156 102.296875 171.28125 L 84.511719 171.148438 L 84.511719 171.175781 C 80.433594 171.429688 77.1875 174.796875 77.15625 178.941406 C 77.125 183.085938 80.320312 186.488281 84.394531 186.785156 L 84.394531 186.8125 L 102.179688 186.871094 C 106.179688 186.535156 109.332031 183.203125 109.363281 179.117188 " fill-opacity="1" fill-rule="nonzero"/></g></g></g><g clip-path="url(#0e02939bee)"><g clip-path="url(#10eacd1019)"><g clip-path="url(#7710f7f6db)"><path fill="#ff914d" d="M 101.996094 183.015625 L 102 182.648438 L 84.464844 182.554688 L 84.460938 182.917969 L 84.515625 182.558594 C 83.71875 182.445312 83.011719 182.074219 82.472656 181.535156 C 81.8125 180.878906 81.40625 179.96875 81.417969 178.964844 C 81.421875 177.972656 81.828125 177.085938 82.476562 176.4375 C 83.027344 175.882812 83.757812 175.507812 84.570312 175.402344 L 84.523438 175.042969 L 84.523438 175.40625 L 102.046875 175.5 L 102.050781 175.140625 L 102 175.496094 C 102.796875 175.609375 103.507812 175.980469 104.046875 176.519531 C 104.707031 177.179688 105.109375 178.085938 105.101562 179.09375 C 105.09375 180.082031 104.6875 180.972656 104.039062 181.621094 C 103.488281 182.171875 102.761719 182.546875 101.949219 182.652344 L 101.996094 183.015625 L 102 182.648438 L 101.996094 183.015625 L 102.042969 183.375 C 103.019531 183.246094 103.894531 182.796875 104.554688 182.136719 C 105.332031 181.355469 105.820312 180.28125 105.828125 179.097656 C 105.835938 177.890625 105.351562 176.792969 104.5625 176.003906 C 103.914062 175.355469 103.058594 174.914062 102.101562 174.777344 L 102.054688 174.773438 L 84.527344 174.679688 L 84.476562 174.683594 C 83.5 174.808594 82.625 175.257812 81.960938 175.921875 C 81.183594 176.699219 80.695312 177.773438 80.6875 178.960938 C 80.679688 180.164062 81.164062 181.261719 81.957031 182.050781 C 82.601562 182.699219 83.457031 183.144531 84.410156 183.277344 L 84.460938 183.285156 L 101.992188 183.378906 L 102.042969 183.375 Z M 109.363281 179.117188 L 109.726562 179.117188 C 109.746094 176.839844 108.828125 174.769531 107.335938 173.277344 C 106.03125 171.972656 104.28125 171.105469 102.332031 170.917969 L 102.300781 170.917969 L 84.515625 170.785156 C 84.320312 170.785156 84.15625 170.9375 84.148438 171.136719 L 84.148438 171.164062 L 84.511719 171.175781 L 84.488281 170.8125 C 82.425781 170.941406 80.566406 171.828125 79.191406 173.203125 C 77.722656 174.671875 76.804688 176.699219 76.789062 178.941406 C 76.773438 181.214844 77.6875 183.285156 79.179688 184.773438 C 80.527344 186.121094 82.34375 187 84.367188 187.148438 L 84.394531 186.785156 L 84.03125 186.78125 L 84.03125 186.808594 C 84.03125 186.902344 84.066406 186.996094 84.136719 187.066406 C 84.203125 187.136719 84.296875 187.175781 84.394531 187.175781 L 102.179688 187.234375 L 102.210938 187.234375 C 104.199219 187.066406 105.992188 186.191406 107.324219 184.855469 C 108.792969 183.386719 109.710938 181.359375 109.726562 179.117188 L 109.363281 179.117188 L 109 179.113281 C 108.984375 181.160156 108.148438 183 106.808594 184.34375 C 105.59375 185.558594 103.964844 186.355469 102.152344 186.511719 L 102.179688 186.871094 L 102.183594 186.507812 L 84.398438 186.445312 L 84.394531 186.8125 L 84.757812 186.816406 L 84.757812 186.789062 C 84.761719 186.59375 84.613281 186.4375 84.421875 186.421875 C 82.578125 186.289062 80.921875 185.484375 79.695312 184.257812 C 78.335938 182.898438 77.503906 181.019531 77.519531 178.945312 C 77.535156 176.898438 78.367188 175.058594 79.707031 173.71875 C 80.960938 172.464844 82.652344 171.65625 84.53125 171.539062 C 84.722656 171.527344 84.867188 171.375 84.875 171.1875 L 84.875 171.160156 L 84.511719 171.148438 L 84.507812 171.511719 L 102.292969 171.644531 L 102.296875 171.28125 L 102.265625 171.644531 C 104.039062 171.8125 105.628906 172.601562 106.820312 173.789062 C 108.179688 175.152344 109.015625 177.035156 109 179.113281 L 109.363281 179.117188 " fill-opacity="1" fill-rule="nonzero"/></g></g></g><g clip-path="url(#d6b9e0ac32)"><g clip-path="url(#9e18aaa933)"><g clip-path="url(#c476554bea)"><path fill="#ff914d" d="M 244.515625 181.9375 C 243.363281 181.933594 242.433594 180.992188 242.445312 179.839844 C 242.453125 178.6875 243.394531 177.757812 244.546875 177.765625 L 272.011719 177.914062 C 273.167969 177.921875 274.09375 178.859375 274.085938 180.011719 C 274.078125 181.164062 273.136719 182.09375 271.980469 182.085938 L 244.515625 181.9375 " fill-opacity="1" fill-rule="nonzero"/><path fill="#ff914d" d="M 244.515625 181.9375 L 244.519531 181.574219 C 244.046875 181.570312 243.621094 181.378906 243.3125 181.070312 C 242.996094 180.753906 242.804688 180.320312 242.808594 179.839844 C 242.8125 179.367188 243.003906 178.945312 243.3125 178.632812 C 243.628906 178.316406 244.0625 178.125 244.542969 178.125 L 272.011719 178.277344 C 272.484375 178.28125 272.90625 178.472656 273.21875 178.78125 C 273.53125 179.09375 273.722656 179.527344 273.722656 180.007812 C 273.71875 180.484375 273.527344 180.90625 273.214844 181.214844 C 272.898438 181.53125 272.464844 181.726562 271.984375 181.722656 L 244.519531 181.574219 L 244.515625 181.9375 L 244.515625 182.304688 L 271.980469 182.453125 C 272.660156 182.453125 273.28125 182.179688 273.730469 181.730469 C 274.167969 181.292969 274.445312 180.683594 274.449219 180.015625 C 274.453125 179.332031 274.179688 178.710938 273.734375 178.265625 C 273.296875 177.824219 272.6875 177.550781 272.015625 177.546875 L 244.550781 177.398438 C 243.867188 177.394531 243.246094 177.671875 242.800781 178.117188 C 242.359375 178.558594 242.085938 179.167969 242.078125 179.835938 C 242.074219 180.515625 242.347656 181.140625 242.796875 181.585938 C 243.234375 182.023438 243.84375 182.296875 244.511719 182.300781 L 244.515625 181.9375 " fill-opacity="1" fill-rule="nonzero"/></g></g></g><g clip-path="url(#42a9a421d2)"><g clip-path="url(#34d78cd920)"><g clip-path="url(#e8ec3e21e8)"><path fill="#ff914d" d="M 197.296875 181.679688 C 196.144531 181.675781 195.21875 180.734375 195.226562 179.582031 C 195.234375 178.429688 196.179688 177.5 197.328125 177.507812 L 224.796875 177.65625 C 225.949219 177.664062 226.875 178.601562 226.867188 179.753906 C 226.859375 180.90625 225.917969 181.835938 224.765625 181.832031 L 197.296875 181.679688 " fill-opacity="1" fill-rule="nonzero"/></g></g></g><g clip-path="url(#f8e5188c13)"><g clip-path="url(#0836210dd7)"><g clip-path="url(#cd5f053478)"><path fill="#ff914d" d="M 197.296875 181.679688 L 197.300781 181.316406 C 196.828125 181.316406 196.40625 181.125 196.09375 180.8125 C 195.78125 180.5 195.585938 180.066406 195.589844 179.585938 C 195.59375 179.113281 195.785156 178.6875 196.097656 178.375 C 196.414062 178.0625 196.847656 177.867188 197.328125 177.871094 L 224.792969 178.019531 C 225.265625 178.023438 225.691406 178.214844 226 178.523438 C 226.316406 178.839844 226.507812 179.269531 226.503906 179.753906 C 226.5 180.226562 226.308594 180.648438 226 180.960938 C 225.683594 181.277344 225.25 181.46875 224.769531 181.464844 L 197.300781 181.316406 L 197.296875 181.679688 L 197.296875 182.046875 L 224.761719 182.195312 C 225.445312 182.195312 226.066406 181.921875 226.511719 181.472656 C 226.953125 181.035156 227.226562 180.425781 227.234375 179.757812 C 227.238281 179.074219 226.964844 178.453125 226.515625 178.007812 C 226.078125 177.566406 225.46875 177.296875 224.800781 177.292969 L 197.332031 177.144531 C 196.652344 177.136719 196.03125 177.414062 195.582031 177.863281 C 195.144531 178.300781 194.867188 178.910156 194.863281 179.582031 C 194.855469 180.261719 195.132812 180.882812 195.578125 181.328125 C 196.019531 181.769531 196.625 182.039062 197.296875 182.046875 L 197.296875 181.679688 " fill-opacity="1" fill-rule="nonzero"/></g></g></g><g clip-path="url(#6fbe2700c8)"><g clip-path="url(#330bd2391e)"><g clip-path="url(#38c857b96c)"><path fill="#ff914d" d="M 150.039062 181.425781 C 148.886719 181.417969 147.957031 180.480469 147.96875 179.324219 C 147.976562 178.171875 148.917969 177.242188 150.070312 177.25 L 177.539062 177.398438 C 178.691406 177.40625 179.617188 178.347656 179.609375 179.5 C 179.601562 180.652344 178.65625 181.578125 177.507812 181.574219 L 150.039062 181.425781 " fill-opacity="1" fill-rule="nonzero"/></g></g></g><g clip-path="url(#659e197883)"><g clip-path="url(#fbbb0036dc)"><g clip-path="url(#1d439f0220)"><path fill="#ff914d" d="M 150.039062 181.425781 L 150.042969 181.058594 C 149.570312 181.058594 149.144531 180.867188 148.832031 180.554688 C 148.519531 180.238281 148.328125 179.808594 148.332031 179.328125 C 148.335938 178.855469 148.527344 178.429688 148.835938 178.121094 C 149.152344 177.804688 149.585938 177.613281 150.066406 177.613281 L 177.535156 177.761719 C 178.007812 177.765625 178.433594 177.957031 178.742188 178.265625 C 179.058594 178.582031 179.25 179.015625 179.246094 179.496094 C 179.242188 179.96875 179.050781 180.390625 178.738281 180.703125 C 178.421875 181.019531 177.988281 181.210938 177.507812 181.207031 L 150.042969 181.0625 L 150.035156 181.789062 L 177.503906 181.9375 C 178.1875 181.941406 178.804688 181.664062 179.253906 181.21875 C 179.691406 180.777344 179.96875 180.171875 179.972656 179.5 C 179.980469 178.816406 179.703125 178.199219 179.257812 177.75 C 178.820312 177.3125 178.210938 177.039062 177.539062 177.035156 L 150.074219 176.886719 C 149.390625 176.878906 148.769531 177.15625 148.324219 177.605469 C 147.882812 178.046875 147.609375 178.65625 147.601562 179.324219 C 147.597656 180.003906 147.875 180.625 148.320312 181.070312 C 148.757812 181.507812 149.367188 181.785156 150.035156 181.789062 L 150.039062 181.425781 " fill-opacity="1" fill-rule="nonzero"/></g></g></g><g clip-path="url(#8840a07095)"><g clip-path="url(#e03baa8f33)"><g clip-path="url(#4fb8333dfd)"><path fill="#ff914d" d="M 102.824219 181.167969 C 101.667969 181.164062 100.742188 180.222656 100.75 179.070312 C 100.757812 177.917969 101.699219 176.988281 102.855469 176.992188 L 130.320312 177.144531 C 131.472656 177.148438 132.402344 178.089844 132.390625 179.242188 C 132.382812 180.394531 131.441406 181.324219 130.289062 181.316406 L 102.824219 181.167969 " fill-opacity="1" fill-rule="nonzero"/><path fill="#ff914d" d="M 102.824219 181.167969 L 102.824219 180.804688 C 102.351562 180.800781 101.929688 180.609375 101.621094 180.300781 C 101.304688 179.984375 101.113281 179.550781 101.113281 179.070312 C 101.117188 178.597656 101.308594 178.175781 101.621094 177.863281 C 101.9375 177.546875 102.371094 177.355469 102.851562 177.355469 L 130.316406 177.503906 C 130.789062 177.507812 131.214844 177.699219 131.523438 178.007812 C 131.839844 178.324219 132.03125 178.757812 132.027344 179.238281 C 132.023438 179.710938 131.832031 180.136719 131.523438 180.445312 C 131.207031 180.761719 130.773438 180.953125 130.292969 180.953125 L 102.824219 180.804688 L 102.824219 181.167969 L 102.820312 181.53125 L 130.285156 181.679688 C 130.96875 181.683594 131.589844 181.410156 132.035156 180.960938 C 132.476562 180.523438 132.75 179.914062 132.753906 179.242188 C 132.761719 178.5625 132.488281 177.941406 132.039062 177.492188 C 131.601562 177.054688 130.992188 176.78125 130.324219 176.777344 L 102.855469 176.628906 C 102.175781 176.625 101.554688 176.902344 101.105469 177.347656 C 100.667969 177.789062 100.394531 178.398438 100.386719 179.066406 C 100.382812 179.75 100.65625 180.367188 101.105469 180.816406 C 101.542969 181.253906 102.148438 181.527344 102.820312 181.53125 L 102.824219 181.167969 " fill-opacity="1" fill-rule="nonzero"/></g></g></g><g clip-path="url(#349c011c88)"><g clip-path="url(#17d41aabe8)"><g clip-path="url(#78c2529984)"><path fill="#ff914d" d="M 187.191406 288.417969 C 189.207031 288.433594 190.855469 289.945312 191.109375 291.890625 L 191.011719 309.417969 C 190.742188 311.359375 189.074219 312.847656 187.058594 312.828125 C 185.042969 312.8125 183.390625 311.304688 183.136719 309.363281 L 183.234375 291.828125 C 183.507812 289.886719 185.175781 288.402344 187.191406 288.417969 Z M 179.28125 309.546875 C 179.617188 313.542969 182.949219 316.699219 187.035156 316.730469 C 191.125 316.761719 194.488281 313.65625 194.871094 309.664062 L 195.003906 291.878906 L 194.976562 291.878906 C 194.722656 287.800781 191.355469 284.550781 187.210938 284.515625 C 183.066406 284.488281 179.664062 287.6875 179.367188 291.761719 L 179.339844 291.761719 L 179.28125 309.546875 " fill-opacity="1" fill-rule="nonzero"/></g></g></g><g clip-path="url(#0568da1fd1)"><g clip-path="url(#48cb741c81)"><g clip-path="url(#3a1f12129d)"><path fill="#cb9a73" d="M 187.191406 288.417969 L 187.1875 288.78125 C 188.179688 288.789062 189.066406 289.191406 189.714844 289.839844 C 190.269531 290.394531 190.644531 291.121094 190.746094 291.9375 L 191.109375 291.890625 L 190.746094 291.886719 L 190.648438 309.414062 L 191.011719 309.417969 L 190.652344 309.367188 C 190.542969 310.160156 190.171875 310.875 189.628906 311.414062 C 188.972656 312.074219 188.066406 312.472656 187.058594 312.464844 C 186.070312 312.460938 185.179688 312.054688 184.53125 311.40625 C 183.980469 310.855469 183.605469 310.128906 183.5 309.316406 L 183.136719 309.363281 L 183.5 309.363281 L 183.597656 291.832031 L 183.234375 291.828125 L 183.59375 291.878906 C 183.707031 291.085938 184.074219 290.375 184.617188 289.835938 C 185.273438 289.175781 186.183594 288.773438 187.1875 288.78125 L 187.191406 288.417969 L 187.191406 288.054688 C 185.988281 288.042969 184.890625 288.53125 184.101562 289.320312 C 183.453125 289.96875 183.007812 290.820312 182.875 291.777344 L 182.871094 291.824219 L 182.773438 309.359375 L 182.777344 309.410156 C 182.90625 310.382812 183.355469 311.261719 184.015625 311.921875 C 184.796875 312.699219 185.867188 313.183594 187.054688 313.195312 C 188.261719 313.203125 189.355469 312.71875 190.144531 311.929688 C 190.792969 311.28125 191.242188 310.425781 191.375 309.46875 L 191.378906 309.421875 L 191.472656 291.890625 L 191.46875 291.84375 C 191.34375 290.867188 190.894531 289.988281 190.230469 289.328125 C 189.453125 288.546875 188.378906 288.0625 187.191406 288.054688 Z M 179.28125 309.546875 L 178.917969 309.578125 C 179.082031 311.566406 179.960938 313.355469 181.292969 314.691406 C 182.765625 316.160156 184.792969 317.078125 187.035156 317.09375 C 189.316406 317.109375 191.382812 316.195312 192.875 314.699219 C 194.179688 313.394531 195.046875 311.648438 195.230469 309.699219 L 195.234375 309.667969 L 195.367188 291.878906 C 195.367188 291.785156 195.328125 291.691406 195.261719 291.621094 C 195.191406 291.554688 195.101562 291.515625 195.003906 291.515625 L 194.976562 291.515625 L 194.976562 291.878906 L 195.339844 291.855469 C 195.210938 289.792969 194.320312 287.929688 192.945312 286.554688 C 191.480469 285.085938 189.453125 284.171875 187.214844 284.152344 C 184.9375 284.136719 182.871094 285.054688 181.378906 286.542969 C 180.03125 287.890625 179.152344 289.710938 179.003906 291.734375 L 179.367188 291.761719 L 179.367188 291.398438 L 179.339844 291.398438 C 179.140625 291.394531 178.976562 291.558594 178.976562 291.757812 L 178.914062 309.546875 L 178.917969 309.578125 L 179.28125 309.546875 L 179.644531 309.550781 L 179.703125 291.761719 L 179.339844 291.761719 L 179.34375 292.125 L 179.367188 292.125 C 179.558594 292.125 179.714844 291.976562 179.730469 291.789062 C 179.863281 289.941406 180.664062 288.289062 181.894531 287.058594 C 183.253906 285.703125 185.132812 284.867188 187.210938 284.882812 C 189.253906 284.898438 191.09375 285.730469 192.433594 287.070312 C 193.6875 288.324219 194.496094 290.019531 194.613281 291.898438 C 194.625 292.089844 194.785156 292.242188 194.976562 292.242188 L 195.003906 292.242188 L 195.003906 291.878906 L 194.636719 291.875 L 194.507812 309.660156 L 194.871094 309.664062 L 194.507812 309.628906 C 194.339844 311.402344 193.550781 312.996094 192.359375 314.1875 C 191 315.546875 189.117188 316.378906 187.039062 316.367188 C 184.992188 316.351562 183.152344 315.515625 181.808594 314.175781 C 180.59375 312.960938 179.792969 311.328125 179.640625 309.519531 L 179.28125 309.546875 L 179.644531 309.550781 L 179.28125 309.546875 " fill-opacity="1" fill-rule="nonzero"/></g></g></g><g clip-path="url(#a8b98d0c6d)"><g clip-path="url(#99c5ff2e2e)"><g clip-path="url(#99adeff07e)"><path fill="#ff914d" d="M 187.445312 241.199219 C 189.460938 241.214844 191.113281 242.730469 191.367188 244.675781 L 191.269531 262.199219 C 190.996094 264.140625 189.328125 265.628906 187.3125 265.613281 C 185.300781 265.597656 183.648438 264.085938 183.394531 262.144531 L 183.488281 244.609375 C 183.765625 242.671875 185.433594 241.183594 187.445312 241.199219 Z M 179.535156 262.332031 C 179.875 266.328125 183.207031 269.480469 187.292969 269.511719 C 191.378906 269.542969 194.746094 266.4375 195.125 262.449219 L 195.261719 244.660156 L 195.234375 244.660156 C 194.980469 240.582031 191.613281 237.335938 187.46875 237.300781 C 183.324219 237.269531 179.921875 240.46875 179.621094 244.542969 L 179.597656 244.546875 L 179.535156 262.332031 " fill-opacity="1" fill-rule="nonzero"/></g></g></g><g clip-path="url(#c8d152443e)"><g clip-path="url(#789ccd6a23)"><g clip-path="url(#10d3a6f96a)"><path fill="#cb9a73" d="M 187.445312 241.199219 L 187.445312 241.566406 C 188.433594 241.570312 189.324219 241.976562 189.972656 242.625 C 190.523438 243.175781 190.898438 243.90625 191.003906 244.71875 L 191.367188 244.675781 L 191 244.667969 L 190.90625 262.199219 L 191.269531 262.199219 L 190.910156 262.148438 C 190.800781 262.945312 190.429688 263.65625 189.890625 264.195312 C 189.230469 264.855469 188.324219 265.257812 187.316406 265.25 C 186.328125 265.242188 185.4375 264.839844 184.789062 264.191406 C 184.234375 263.636719 183.859375 262.910156 183.757812 262.097656 L 183.394531 262.144531 L 183.757812 262.148438 L 183.855469 244.613281 L 183.488281 244.609375 L 183.851562 244.664062 C 183.964844 243.867188 184.332031 243.160156 184.875 242.617188 C 185.53125 241.960938 186.4375 241.558594 187.445312 241.566406 L 187.445312 241.199219 L 187.449219 240.835938 C 186.246094 240.828125 185.144531 241.3125 184.359375 242.101562 C 183.710938 242.75 183.265625 243.605469 183.128906 244.558594 L 183.125 244.609375 L 183.03125 262.140625 L 183.035156 262.191406 C 183.164062 263.164062 183.613281 264.042969 184.273438 264.703125 C 185.050781 265.484375 186.125 265.96875 187.3125 265.976562 C 188.519531 265.984375 189.617188 265.5 190.402344 264.710938 C 191.054688 264.0625 191.496094 263.207031 191.632812 262.25 L 191.636719 262.203125 L 191.730469 244.675781 L 191.726562 244.628906 C 191.601562 243.648438 191.148438 242.773438 190.488281 242.109375 C 189.707031 241.332031 188.632812 240.84375 187.449219 240.835938 Z M 179.535156 262.332031 L 179.175781 262.363281 C 179.339844 264.347656 180.21875 266.140625 181.550781 267.472656 C 183.019531 268.941406 185.050781 269.859375 187.289062 269.878906 C 189.570312 269.894531 191.640625 268.976562 193.132812 267.484375 C 194.4375 266.179688 195.304688 264.433594 195.488281 262.480469 L 195.492188 262.449219 L 195.625 244.664062 C 195.625 244.464844 195.46875 244.300781 195.269531 244.296875 L 195.242188 244.296875 L 195.234375 244.660156 L 195.597656 244.640625 C 195.46875 242.574219 194.578125 240.714844 193.203125 239.339844 C 191.734375 237.871094 189.710938 236.953125 187.46875 236.9375 C 185.191406 236.921875 183.125 237.835938 181.636719 239.328125 C 180.289062 240.675781 179.410156 242.492188 179.261719 244.515625 L 179.621094 244.542969 L 179.613281 244.179688 L 179.589844 244.179688 C 179.394531 244.183594 179.234375 244.347656 179.234375 244.542969 L 179.171875 262.328125 L 179.175781 262.363281 L 179.535156 262.332031 L 179.898438 262.332031 L 179.960938 244.546875 L 179.597656 244.546875 L 179.605469 244.910156 L 179.632812 244.90625 C 179.820312 244.902344 179.972656 244.757812 179.988281 244.570312 C 180.121094 242.726562 180.921875 241.070312 182.148438 239.84375 C 183.511719 238.484375 185.386719 237.652344 187.464844 237.667969 C 189.507812 237.683594 191.351562 238.515625 192.691406 239.851562 C 193.941406 241.105469 194.753906 242.800781 194.871094 244.683594 C 194.882812 244.871094 195.035156 245.019531 195.222656 245.023438 L 195.25 245.023438 L 195.261719 244.660156 L 194.894531 244.65625 L 194.761719 262.445312 L 195.125 262.449219 L 194.765625 262.410156 C 194.597656 264.1875 193.808594 265.777344 192.617188 266.96875 C 191.253906 268.328125 189.375 269.164062 187.292969 269.148438 C 185.25 269.132812 183.40625 268.300781 182.066406 266.957031 C 180.851562 265.742188 180.050781 264.113281 179.898438 262.300781 L 179.535156 262.332031 L 179.898438 262.332031 L 179.535156 262.332031 " fill-opacity="1" fill-rule="nonzero"/></g></g></g><g clip-path="url(#8f57df67d1)"><g clip-path="url(#3075961dbc)"><g clip-path="url(#cf586aed85)"><path fill="#ff914d" d="M 187.703125 193.941406 C 189.71875 193.957031 191.371094 195.46875 191.621094 197.410156 L 191.527344 214.941406 C 191.253906 216.882812 189.585938 218.367188 187.570312 218.351562 C 185.558594 218.339844 183.902344 216.828125 183.652344 214.886719 L 183.746094 197.351562 C 184.023438 195.414062 185.691406 193.925781 187.703125 193.941406 Z M 179.792969 215.070312 C 180.128906 219.066406 183.460938 222.222656 187.550781 222.253906 C 191.636719 222.28125 195.003906 219.175781 195.382812 215.1875 L 195.515625 197.402344 L 195.488281 197.402344 C 195.238281 193.320312 191.871094 190.074219 187.722656 190.042969 C 183.578125 190.011719 180.175781 193.210938 179.878906 197.285156 L 179.855469 197.285156 L 179.792969 215.070312 " fill-opacity="1" fill-rule="nonzero"/></g></g></g><g clip-path="url(#750005a962)"><g clip-path="url(#3611cbc654)"><g clip-path="url(#7e3bc773da)"><path fill="#cb9a73" d="M 187.703125 193.941406 L 187.703125 194.304688 C 188.691406 194.3125 189.582031 194.714844 190.230469 195.363281 C 190.785156 195.917969 191.15625 196.648438 191.261719 197.457031 L 191.621094 197.410156 L 191.257812 197.410156 L 191.164062 214.9375 L 191.527344 214.941406 L 191.167969 214.890625 C 191.054688 215.6875 190.6875 216.394531 190.144531 216.9375 C 189.488281 217.59375 188.578125 217.996094 187.574219 217.992188 C 186.585938 217.980469 185.695312 217.582031 185.042969 216.929688 C 184.492188 216.378906 184.117188 215.648438 184.015625 214.839844 L 183.652344 214.886719 L 184.015625 214.886719 L 184.109375 197.351562 L 183.746094 197.351562 L 184.109375 197.402344 C 184.21875 196.609375 184.589844 195.902344 185.128906 195.359375 C 185.789062 194.703125 186.695312 194.296875 187.703125 194.304688 L 187.703125 193.941406 L 187.707031 193.578125 C 186.5 193.566406 185.402344 194.054688 184.613281 194.84375 C 183.964844 195.492188 183.523438 196.347656 183.386719 197.300781 L 183.382812 197.347656 L 183.289062 214.882812 L 183.292969 214.933594 C 183.417969 215.90625 183.867188 216.78125 184.53125 217.445312 C 185.308594 218.222656 186.382812 218.710938 187.570312 218.71875 C 188.773438 218.726562 189.871094 218.242188 190.660156 217.453125 C 191.308594 216.804688 191.753906 215.949219 191.886719 214.992188 L 191.890625 214.945312 L 191.988281 197.414062 L 191.984375 197.367188 C 191.859375 196.390625 191.40625 195.511719 190.746094 194.851562 C 189.96875 194.074219 188.890625 193.585938 187.707031 193.578125 Z M 179.792969 215.070312 L 179.429688 215.101562 C 179.597656 217.089844 180.476562 218.882812 181.808594 220.210938 C 183.277344 221.683594 185.304688 222.601562 187.546875 222.617188 C 189.828125 222.632812 191.898438 221.71875 193.390625 220.222656 C 194.695312 218.917969 195.5625 217.171875 195.746094 215.222656 L 195.746094 215.191406 L 195.882812 197.40625 C 195.882812 197.308594 195.84375 197.214844 195.777344 197.144531 C 195.707031 197.074219 195.613281 197.039062 195.515625 197.039062 L 195.488281 197.039062 L 195.488281 197.402344 L 195.851562 197.378906 C 195.722656 195.316406 194.835938 193.453125 193.460938 192.078125 C 191.992188 190.609375 189.96875 189.695312 187.726562 189.679688 C 185.449219 189.660156 183.382812 190.578125 181.890625 192.066406 C 180.542969 193.414062 179.664062 195.234375 179.515625 197.257812 L 179.878906 197.285156 L 179.894531 196.921875 L 179.867188 196.921875 C 179.769531 196.917969 179.671875 196.953125 179.601562 197.019531 C 179.53125 197.089844 179.492188 197.183594 179.492188 197.28125 L 179.429688 215.070312 L 179.429688 215.101562 L 179.792969 215.070312 L 180.15625 215.074219 L 180.21875 197.289062 L 179.855469 197.285156 L 179.84375 197.648438 L 179.867188 197.648438 C 180.0625 197.65625 180.230469 197.507812 180.242188 197.3125 C 180.378906 195.46875 181.179688 193.8125 182.40625 192.582031 C 183.765625 191.222656 185.644531 190.390625 187.722656 190.40625 C 189.765625 190.421875 191.605469 191.253906 192.945312 192.59375 C 194.199219 193.847656 195.007812 195.542969 195.125 197.421875 C 195.140625 197.617188 195.296875 197.765625 195.492188 197.765625 L 195.519531 197.765625 L 195.515625 197.402344 L 195.152344 197.398438 L 195.019531 215.183594 L 195.382812 215.1875 L 195.023438 215.152344 C 194.851562 216.925781 194.0625 218.519531 192.875 219.707031 C 191.511719 221.070312 189.628906 221.902344 187.550781 221.890625 C 185.507812 221.875 183.664062 221.039062 182.320312 219.699219 C 181.105469 218.484375 180.308594 216.855469 180.15625 215.042969 L 179.792969 215.070312 L 180.15625 215.074219 L 179.792969 215.070312 " fill-opacity="1" fill-rule="nonzero"/></g></g></g><g clip-path="url(#8399d613bb)"><g clip-path="url(#8ae5c6ac87)"><g clip-path="url(#134038d5c9)"><path fill="#ff914d" d="M 187.960938 146.726562 C 189.976562 146.738281 191.628906 148.25 191.878906 150.195312 L 191.785156 167.722656 C 191.511719 169.664062 189.84375 171.152344 187.828125 171.136719 C 185.8125 171.121094 184.160156 169.613281 183.910156 167.667969 L 184.003906 150.132812 C 184.277344 148.195312 185.945312 146.710938 187.960938 146.726562 Z M 180.050781 167.855469 C 180.386719 171.851562 183.71875 175.003906 187.804688 175.035156 C 191.894531 175.066406 195.261719 171.960938 195.640625 167.96875 L 195.773438 150.183594 L 195.746094 150.183594 C 195.492188 146.105469 192.128906 142.855469 187.980469 142.824219 C 183.835938 142.792969 180.433594 145.992188 180.136719 150.070312 L 180.109375 150.066406 L 180.050781 167.855469 " fill-opacity="1" fill-rule="nonzero"/></g></g></g><g clip-path="url(#771fb08114)"><g clip-path="url(#35e7884024)"><g clip-path="url(#31cd14dfc7)"><path fill="#cb9a73" d="M 187.960938 146.726562 L 187.960938 147.089844 C 188.949219 147.097656 189.835938 147.5 190.484375 148.148438 C 191.039062 148.699219 191.414062 149.429688 191.515625 150.242188 L 191.878906 150.195312 L 191.515625 150.195312 L 191.421875 167.71875 L 191.785156 167.722656 L 191.425781 167.671875 C 191.3125 168.46875 190.941406 169.179688 190.402344 169.71875 C 189.742188 170.378906 188.835938 170.78125 187.832031 170.773438 C 186.839844 170.765625 185.949219 170.363281 185.300781 169.714844 C 184.75 169.164062 184.375 168.433594 184.269531 167.621094 L 183.910156 167.667969 L 184.273438 167.671875 L 184.367188 150.136719 L 184.003906 150.132812 L 184.363281 150.1875 C 184.476562 149.394531 184.84375 148.683594 185.386719 148.144531 C 186.042969 147.484375 186.953125 147.082031 187.957031 147.085938 L 187.960938 146.726562 L 187.960938 146.359375 C 186.757812 146.351562 185.660156 146.839844 184.871094 147.628906 C 184.222656 148.277344 183.777344 149.128906 183.644531 150.082031 L 183.640625 150.132812 L 183.542969 167.664062 L 183.546875 167.714844 C 183.675781 168.691406 184.125 169.566406 184.789062 170.226562 C 185.566406 171.007812 186.640625 171.492188 187.828125 171.5 C 189.03125 171.507812 190.128906 171.023438 190.917969 170.234375 C 191.566406 169.585938 192.011719 168.730469 192.144531 167.773438 L 192.148438 167.726562 L 192.242188 150.199219 L 192.238281 150.152344 C 192.113281 149.171875 191.664062 148.296875 191 147.632812 C 190.222656 146.855469 189.148438 146.367188 187.960938 146.359375 Z M 180.050781 167.855469 L 179.6875 167.882812 C 179.855469 169.871094 180.730469 171.664062 182.066406 172.996094 C 183.535156 174.464844 185.5625 175.382812 187.804688 175.402344 C 190.085938 175.417969 192.15625 174.5 193.644531 173.007812 C 194.953125 171.703125 195.816406 169.953125 196.003906 168.003906 L 196.003906 167.972656 L 196.136719 150.1875 C 196.140625 149.988281 195.976562 149.824219 195.777344 149.820312 L 195.75 149.820312 L 195.746094 150.183594 L 196.109375 150.164062 C 195.980469 148.097656 195.089844 146.234375 193.71875 144.863281 C 192.25 143.394531 190.222656 142.476562 187.984375 142.460938 C 185.707031 142.445312 183.640625 143.359375 182.148438 144.851562 C 180.800781 146.199219 179.921875 148.015625 179.773438 150.039062 L 180.136719 150.070312 L 180.140625 149.703125 L 180.113281 149.703125 C 180.019531 149.703125 179.925781 149.738281 179.855469 149.808594 C 179.785156 149.875 179.746094 149.96875 179.746094 150.066406 L 179.6875 167.851562 L 179.6875 167.882812 L 180.050781 167.855469 L 180.414062 167.855469 L 180.476562 150.070312 L 180.109375 150.066406 L 180.109375 150.429688 L 180.132812 150.433594 C 180.324219 150.433594 180.484375 150.285156 180.5 150.09375 C 180.636719 148.25 181.4375 146.59375 182.664062 145.367188 C 184.023438 144.007812 185.902344 143.171875 187.980469 143.1875 C 190.023438 143.203125 191.863281 144.039062 193.203125 145.375 C 194.457031 146.628906 195.265625 148.324219 195.382812 150.207031 C 195.394531 150.398438 195.550781 150.542969 195.742188 150.546875 L 195.769531 150.546875 L 195.773438 150.183594 L 195.410156 150.183594 L 195.277344 167.96875 L 195.640625 167.96875 L 195.277344 167.933594 C 195.109375 169.710938 194.320312 171.300781 193.128906 172.492188 C 191.769531 173.855469 189.886719 174.6875 187.808594 174.671875 C 185.765625 174.65625 183.921875 173.824219 182.578125 172.480469 C 181.363281 171.265625 180.566406 169.636719 180.414062 167.824219 L 180.050781 167.855469 L 180.414062 167.855469 L 180.050781 167.855469 " fill-opacity="1" fill-rule="nonzero"/></g></g></g><g clip-path="url(#7f5bfbb5db)"><g clip-path="url(#06696c8cc5)"><g clip-path="url(#7e8686fe69)"><path fill="#ff914d" d="M 184.160156 121.125 L 184.257812 103.589844 C 184.53125 101.648438 186.199219 100.164062 188.210938 100.179688 C 190.226562 100.195312 191.878906 101.707031 192.132812 103.648438 L 192.035156 121.179688 C 191.761719 123.117188 190.09375 124.605469 188.082031 124.589844 C 186.066406 124.578125 184.414062 123.066406 184.160156 121.125 Z M 188.058594 128.488281 C 192.144531 128.519531 195.511719 125.417969 195.894531 121.425781 L 196.027344 103.640625 L 196 103.640625 C 195.746094 99.558594 192.378906 96.3125 188.234375 96.28125 C 184.089844 96.25 180.683594 99.445312 180.390625 103.519531 L 180.363281 103.519531 L 180.304688 121.308594 C 180.640625 125.304688 183.972656 128.460938 188.058594 128.488281 " fill-opacity="1" fill-rule="nonzero"/></g></g></g><g clip-path="url(#6658ae3203)"><g clip-path="url(#7b063aa8e3)"><g clip-path="url(#47a7432037)"><path fill="#cb9a73" d="M 184.160156 121.125 L 184.523438 121.125 L 184.621094 103.589844 L 184.257812 103.589844 L 184.617188 103.640625 C 184.730469 102.847656 185.097656 102.136719 185.636719 101.597656 C 186.296875 100.9375 187.207031 100.535156 188.210938 100.542969 C 189.199219 100.550781 190.089844 100.953125 190.738281 101.601562 C 191.292969 102.15625 191.664062 102.882812 191.773438 103.695312 L 192.132812 103.648438 L 191.769531 103.648438 L 191.675781 121.175781 L 192.035156 121.179688 L 191.675781 121.128906 C 191.566406 121.921875 191.195312 122.632812 190.65625 123.175781 C 189.996094 123.832031 189.089844 124.234375 188.082031 124.226562 C 187.09375 124.21875 186.203125 123.816406 185.554688 123.167969 C 185.003906 122.617188 184.628906 121.886719 184.523438 121.078125 L 184.160156 121.125 L 184.523438 121.125 L 184.160156 121.125 L 183.800781 121.171875 C 183.929688 122.144531 184.378906 123.019531 185.039062 123.683594 C 185.816406 124.460938 186.890625 124.945312 188.078125 124.953125 C 189.285156 124.964844 190.382812 124.476562 191.171875 123.6875 C 191.820312 123.039062 192.261719 122.183594 192.398438 121.230469 L 192.402344 121.179688 L 192.496094 103.652344 L 192.492188 103.605469 C 192.367188 102.628906 191.917969 101.75 191.253906 101.085938 C 190.476562 100.308594 189.402344 99.824219 188.214844 99.816406 C 187.011719 99.804688 185.914062 100.292969 185.121094 101.082031 C 184.476562 101.730469 184.03125 102.582031 183.898438 103.535156 L 183.890625 103.585938 L 183.796875 121.121094 L 183.800781 121.171875 Z M 188.058594 128.488281 L 188.058594 128.855469 C 190.335938 128.871094 192.40625 127.953125 193.898438 126.460938 C 195.203125 125.15625 196.070312 123.40625 196.257812 121.460938 L 196.257812 121.429688 L 196.390625 103.644531 C 196.390625 103.445312 196.234375 103.28125 196.039062 103.273438 L 196.011719 103.273438 L 196 103.640625 L 196.363281 103.617188 C 196.234375 101.554688 195.347656 99.691406 193.972656 98.320312 C 192.503906 96.851562 190.476562 95.933594 188.234375 95.917969 C 185.960938 95.898438 183.890625 96.816406 182.402344 98.308594 C 181.054688 99.652344 180.175781 101.472656 180.027344 103.496094 L 180.390625 103.519531 L 180.394531 103.15625 L 180.367188 103.160156 C 180.269531 103.15625 180.179688 103.195312 180.109375 103.261719 C 180.039062 103.332031 180 103.421875 180 103.519531 L 179.9375 121.304688 L 179.941406 121.335938 C 180.109375 123.328125 180.984375 125.117188 182.320312 126.449219 C 183.789062 127.921875 185.816406 128.835938 188.058594 128.855469 L 188.058594 128.488281 L 188.0625 128.125 C 186.015625 128.109375 184.171875 127.277344 182.832031 125.9375 C 181.617188 124.71875 180.820312 123.089844 180.664062 121.277344 L 180.304688 121.308594 L 180.667969 121.3125 L 180.726562 103.523438 L 180.363281 103.519531 L 180.359375 103.886719 L 180.386719 103.886719 C 180.578125 103.890625 180.738281 103.742188 180.753906 103.550781 C 180.886719 101.703125 181.6875 100.046875 182.917969 98.820312 C 184.277344 97.464844 186.15625 96.628906 188.230469 96.644531 C 190.273438 96.660156 192.117188 97.492188 193.457031 98.832031 C 194.710938 100.085938 195.519531 101.78125 195.636719 103.660156 C 195.648438 103.847656 195.800781 103.996094 195.988281 104 L 196.011719 104.003906 L 196.027344 103.640625 L 195.660156 103.636719 L 195.53125 121.421875 L 195.894531 121.425781 L 195.53125 121.390625 C 195.363281 123.164062 194.574219 124.753906 193.382812 125.945312 C 192.023438 127.308594 190.140625 128.140625 188.0625 128.125 L 188.058594 128.488281 " fill-opacity="1" fill-rule="nonzero"/></g></g></g><g clip-path="url(#fc43ed0bc1)"><g clip-path="url(#f4fbc0a856)"><g clip-path="url(#04929e5c02)"><path fill="#ff914d" d="M 185.238281 263.644531 C 185.242188 262.488281 186.183594 261.5625 187.335938 261.570312 C 188.488281 261.578125 189.417969 262.519531 189.410156 263.671875 L 189.261719 291.140625 C 189.253906 292.292969 188.316406 293.21875 187.164062 293.210938 C 186.011719 293.203125 185.082031 292.261719 185.085938 291.109375 L 185.238281 263.644531 " fill-opacity="1" fill-rule="nonzero"/></g></g></g><g clip-path="url(#0196097d4a)"><g clip-path="url(#34739264b3)"><g clip-path="url(#8eaad84eb3)"><path fill="#cb9a73" d="M 185.238281 263.644531 L 185.601562 263.644531 C 185.605469 263.171875 185.796875 262.75 186.105469 262.4375 C 186.421875 262.121094 186.855469 261.929688 187.335938 261.933594 C 187.808594 261.9375 188.230469 262.128906 188.542969 262.441406 C 188.859375 262.757812 189.050781 263.1875 189.046875 263.671875 L 188.898438 291.136719 C 188.894531 291.609375 188.703125 292.035156 188.394531 292.34375 C 188.078125 292.65625 187.648438 292.851562 187.164062 292.847656 C 186.691406 292.84375 186.269531 292.652344 185.957031 292.339844 C 185.644531 292.027344 185.449219 291.59375 185.453125 291.109375 L 185.601562 263.644531 L 185.238281 263.644531 L 184.871094 263.640625 L 184.722656 291.105469 C 184.71875 291.789062 184.996094 292.410156 185.445312 292.855469 C 185.882812 293.296875 186.492188 293.570312 187.160156 293.578125 C 187.84375 293.582031 188.464844 293.304688 188.910156 292.859375 C 189.347656 292.421875 189.621094 291.8125 189.628906 291.144531 L 189.777344 263.675781 C 189.78125 262.992188 189.503906 262.371094 189.058594 261.925781 C 188.617188 261.484375 188.007812 261.210938 187.339844 261.207031 C 186.65625 261.199219 186.035156 261.476562 185.589844 261.921875 C 185.152344 262.359375 184.875 262.96875 184.875 263.640625 L 185.238281 263.644531 " fill-opacity="1" fill-rule="nonzero"/></g></g></g><g clip-path="url(#d14f418789)"><g clip-path="url(#07fe7889a8)"><g clip-path="url(#d9be5f960f)"><path fill="#ff914d" d="M 185.492188 216.425781 C 185.5 215.273438 186.441406 214.34375 187.59375 214.351562 C 188.746094 214.363281 189.675781 215.304688 189.667969 216.457031 L 189.519531 243.921875 C 189.511719 245.074219 188.574219 246.003906 187.417969 245.996094 C 186.269531 245.988281 185.335938 245.042969 185.34375 243.890625 L 185.492188 216.425781 " fill-opacity="1" fill-rule="nonzero"/></g></g></g><g clip-path="url(#bad3109579)"><g clip-path="url(#e3d9eba3ac)"><g clip-path="url(#9e2702e254)"><path fill="#cb9a73" d="M 185.492188 216.425781 L 185.859375 216.425781 C 185.859375 215.957031 186.050781 215.53125 186.359375 215.222656 C 186.675781 214.90625 187.109375 214.714844 187.589844 214.71875 C 188.0625 214.722656 188.488281 214.914062 188.796875 215.222656 C 189.113281 215.539062 189.308594 215.972656 189.304688 216.453125 L 189.15625 243.917969 C 189.152344 244.394531 188.960938 244.816406 188.652344 245.128906 C 188.335938 245.441406 187.90625 245.636719 187.421875 245.628906 C 186.949219 245.628906 186.527344 245.4375 186.214844 245.125 C 185.898438 244.808594 185.707031 244.375 185.707031 243.894531 L 185.859375 216.425781 L 185.492188 216.425781 L 185.128906 216.421875 L 184.980469 243.890625 C 184.976562 244.570312 185.253906 245.191406 185.703125 245.640625 C 186.140625 246.078125 186.746094 246.355469 187.417969 246.359375 C 188.101562 246.363281 188.722656 246.089844 189.167969 245.640625 C 189.605469 245.203125 189.878906 244.597656 189.882812 243.925781 L 190.03125 216.460938 C 190.035156 215.777344 189.761719 215.15625 189.3125 214.710938 C 188.875 214.269531 188.265625 213.996094 187.59375 213.992188 C 186.914062 213.984375 186.292969 214.261719 185.84375 214.707031 C 185.40625 215.144531 185.132812 215.753906 185.128906 216.421875 L 185.492188 216.425781 " fill-opacity="1" fill-rule="nonzero"/></g></g></g><g clip-path="url(#ef0e01a9b4)"><g clip-path="url(#2070c64e01)"><g clip-path="url(#e0ec80046f)"><path fill="#ff914d" d="M 185.75 169.164062 C 185.757812 168.011719 186.695312 167.085938 187.851562 167.09375 C 189.003906 167.101562 189.929688 168.042969 189.925781 169.199219 L 189.777344 196.664062 C 189.769531 197.816406 188.828125 198.746094 187.675781 198.738281 C 186.523438 198.726562 185.59375 197.785156 185.601562 196.632812 L 185.75 169.164062 " fill-opacity="1" fill-rule="nonzero"/></g></g></g><g clip-path="url(#21eb65628c)"><g clip-path="url(#9a4203809e)"><g clip-path="url(#e2f6c52266)"><path fill="#cb9a73" d="M 185.75 169.164062 L 186.113281 169.167969 C 186.117188 168.695312 186.308594 168.273438 186.617188 167.960938 C 186.933594 167.644531 187.367188 167.453125 187.847656 167.457031 C 188.320312 167.460938 188.746094 167.652344 189.054688 167.964844 C 189.371094 168.277344 189.5625 168.710938 189.5625 169.195312 L 189.410156 196.660156 C 189.410156 197.132812 189.21875 197.558594 188.90625 197.867188 C 188.59375 198.183594 188.160156 198.375 187.679688 198.371094 C 187.207031 198.371094 186.785156 198.175781 186.472656 197.867188 C 186.15625 197.550781 185.964844 197.117188 185.964844 196.636719 L 186.113281 169.167969 L 185.75 169.164062 L 185.386719 169.164062 L 185.238281 196.632812 C 185.234375 197.3125 185.511719 197.933594 185.957031 198.378906 C 186.398438 198.820312 187.003906 199.09375 187.675781 199.097656 C 188.355469 199.105469 188.976562 198.832031 189.421875 198.382812 C 189.863281 197.945312 190.136719 197.335938 190.140625 196.664062 L 190.289062 169.199219 C 190.292969 168.519531 190.015625 167.894531 189.570312 167.449219 C 189.128906 167.007812 188.519531 166.734375 187.851562 166.730469 C 187.171875 166.722656 186.550781 167 186.105469 167.445312 C 185.664062 167.882812 185.390625 168.492188 185.386719 169.164062 L 185.75 169.164062 " fill-opacity="1" fill-rule="nonzero"/></g></g></g><g clip-path="url(#bfc166bfa6)"><g clip-path="url(#d154fdb7a1)"><g clip-path="url(#048cd37a18)"><path fill="#ff914d" d="M 186.007812 121.949219 C 186.011719 120.796875 186.953125 119.867188 188.105469 119.878906 C 189.257812 119.886719 190.1875 120.828125 190.183594 121.980469 L 190.03125 149.445312 C 190.027344 150.601562 189.085938 151.527344 187.933594 151.515625 C 186.78125 151.511719 185.851562 150.566406 185.859375 149.417969 L 186.007812 121.949219 " fill-opacity="1" fill-rule="nonzero"/><path fill="#cb9a73" d="M 186.007812 121.949219 L 186.371094 121.953125 C 186.375 121.480469 186.566406 121.054688 186.875 120.746094 C 187.191406 120.429688 187.625 120.238281 188.105469 120.242188 C 188.578125 120.246094 189 120.4375 189.3125 120.746094 C 189.628906 121.0625 189.820312 121.496094 189.816406 121.976562 L 189.667969 149.445312 C 189.667969 149.917969 189.476562 150.339844 189.164062 150.652344 C 188.851562 150.964844 188.417969 151.15625 187.9375 151.15625 C 187.464844 151.152344 187.039062 150.957031 186.726562 150.648438 C 186.414062 150.332031 186.222656 149.898438 186.222656 149.417969 L 186.371094 121.953125 L 185.644531 121.945312 L 185.496094 149.414062 C 185.492188 150.09375 185.765625 150.714844 186.214844 151.160156 C 186.652344 151.601562 187.261719 151.875 187.933594 151.882812 C 188.613281 151.886719 189.234375 151.613281 189.679688 151.167969 C 190.121094 150.726562 190.390625 150.121094 190.398438 149.449219 L 190.546875 121.980469 C 190.550781 121.300781 190.273438 120.679688 189.828125 120.234375 C 189.386719 119.792969 188.777344 119.519531 188.109375 119.511719 C 187.425781 119.507812 186.804688 119.785156 186.359375 120.230469 C 185.921875 120.667969 185.648438 121.277344 185.644531 121.945312 L 186.007812 121.949219 " fill-opacity="1" fill-rule="nonzero"/></g></g></g></svg>